<?xml version="1.0" encoding="UTF-8"?>
<svg id="Layer_1" xmlns="http://www.w3.org/2000/svg" version="1.1" viewBox="0 0 1000 1000">
  <!-- Generator: Adobe Illustrator 29.5.0, SVG Export Plug-In . SVG Version: 2.1.0 Build 137)  -->
  <defs>
    <style>
      .st0, .st1 {
        fill: #04465e;
      }

      .st2, .st3 {
        fill: #42c0c0;
      }

      .st2, .st1 {
        font-family: LucidaBright, 'Lucida Bright';
        font-size: 66px;
      }
    </style>
  </defs>
  <g>
    <circle class="st0" cx="496" cy="359.42" r="200"/>
    <path class="st3" d="M639.57,261.82c-2.12,4.79-9.43,3.42-25.05,5.77-64.58,9.71-87.26,55.27-117.21,44.44-19.11-6.91-26.14-31.34-30.03-29.28-4.39,2.33,14.97,27.95,5.94,50.81-8.03,20.32-30.81,18.99-40.64,43.12-6.61,16.24-1.06,28.52-4.7,29.66-7.11,2.24-39.8-40.9-39.48-86.68.47-66.18,69.94-137.43,141.91-133.9,61.87,3.03,115.99,60.85,109.26,76.04Z"/>
    <path class="st3" d="M361.9,457.23c1.98-4.85,9.33-3.7,24.87-6.5,64.27-11.58,85.62-57.77,115.87-47.82,19.31,6.35,27.04,30.57,30.86,28.4,4.32-2.45-15.78-27.51-7.41-50.62,7.44-20.54,30.25-19.88,39.37-44.29,6.14-16.42.23-28.54,3.84-29.79,7.04-2.44,40.97,39.73,41.98,85.49,1.45,66.17-65.92,139.4-137.96,137.96-61.93-1.23-117.71-57.46-111.42-72.84Z"/>
  </g>
  <text class="st2" transform="translate(391.06 641.72)"><tspan x="0" y="0">VISTA</tspan></text>
  <text class="st1" transform="translate(322.9 700.13)"><tspan x="0" y="0">PRIMROSE</tspan></text>
  <text/>
</svg>